<svg xmlns="http://www.w3.org/2000/svg" xmlns:xlink="http://www.w3.org/1999/xlink" width="1920" zoomAndPan="magnify" viewBox="0 0 1440 809.999993" height="1080" preserveAspectRatio="xMidYMid meet" version="1.0"><defs><g/><clipPath id="c308db843d"><rect x="0" width="273" y="0" height="125"/></clipPath></defs><g transform="matrix(1, 0, 0, 1, 584, 342)"><g clip-path="url(#c308db843d)"><g fill="#000000" fill-opacity="1"><g transform="translate(0.860992, 89.530632)"><g><path d="M 8.6875 0 C 8.875 -1.082031 8.96875 -2.265625 8.96875 -3.546875 L 8.96875 -63.8125 L 18.5625 -63.8125 L 44 -23.796875 L 44 -60.546875 C 44 -62.304688 43.835938 -63.394531 43.515625 -63.8125 L 56.46875 -63.8125 C 56.3125 -62.53125 56.234375 -61.125 56.234375 -59.59375 L 56.234375 0 L 46.25 0 L 21.203125 -38.4375 L 21.203125 0 Z M 8.6875 0 "/></g></g></g><g fill="#000000" fill-opacity="1"><g transform="translate(58.004917, 89.530632)"><g><path d="M 13.46875 -7.578125 C 10.5625 -10.359375 8.269531 -13.703125 6.59375 -17.609375 C 4.914062 -21.515625 4.078125 -25.789062 4.078125 -30.4375 C 4.078125 -35.09375 4.859375 -39.5 6.421875 -43.65625 C 7.992188 -47.820312 10.234375 -51.488281 13.140625 -54.65625 C 16.054688 -57.820312 19.578125 -60.335938 23.703125 -62.203125 C 27.828125 -64.078125 32.445312 -65.015625 37.5625 -65.015625 C 46.394531 -65.015625 53.832031 -62.234375 59.875 -56.671875 C 66.34375 -50.710938 69.578125 -42.679688 69.578125 -32.578125 C 69.578125 -22.785156 66.25 -14.644531 59.59375 -8.15625 C 55.5 -4.15625 50.617188 -1.40625 44.953125 0.09375 C 42.171875 0.832031 38.914062 1.203125 35.1875 1.203125 C 31.46875 1.203125 27.644531 0.4375 23.71875 -1.09375 C 19.800781 -2.632812 16.382812 -4.796875 13.46875 -7.578125 Z M 17.421875 -31.09375 C 17.421875 -28.113281 17.914062 -25.375 18.90625 -22.875 C 19.894531 -20.382812 21.269531 -18.242188 23.03125 -16.453125 C 26.769531 -12.679688 31.582031 -10.796875 37.46875 -10.796875 C 43.070312 -10.796875 47.566406 -12.601562 50.953125 -16.21875 C 54.410156 -19.957031 56.140625 -25.0625 56.140625 -31.53125 C 56.140625 -37.601562 54.492188 -42.671875 51.203125 -46.734375 C 47.648438 -51.085938 42.785156 -53.265625 36.609375 -53.265625 C 30.628906 -53.265625 25.878906 -51.054688 22.359375 -46.640625 C 19.066406 -42.515625 17.421875 -37.332031 17.421875 -31.09375 Z M 17.421875 -31.09375 "/></g></g></g><g fill="#000000" fill-opacity="1"><g transform="translate(123.592872, 89.530632)"><g><path d="M 36.84375 -65.015625 C 42.832031 -65.015625 47.9375 -63.972656 52.15625 -61.890625 L 52.15625 -47.21875 L 52.0625 -47.125 C 50.269531 -49.875 46.492188 -51.695312 40.734375 -52.59375 C 39.035156 -52.875 36.890625 -53.015625 34.296875 -53.015625 C 31.710938 -53.015625 29.171875 -52.523438 26.671875 -51.546875 C 24.179688 -50.578125 22.132812 -49.195312 20.53125 -47.40625 C 17.425781 -43.914062 15.875 -38.941406 15.875 -32.484375 C 15.875 -24.960938 17.84375 -19.363281 21.78125 -15.6875 C 25.039062 -12.613281 29.359375 -11.078125 34.734375 -11.078125 C 40.816406 -11.078125 45.742188 -12.375 49.515625 -14.96875 C 50.890625 -15.894531 52.054688 -17.046875 53.015625 -18.421875 L 53.15625 -18.328125 L 53.15625 -4.890625 C 48.269531 -0.828125 41.679688 1.203125 33.390625 1.203125 C 23.640625 1.203125 15.992188 -1.898438 10.453125 -8.109375 C 5.148438 -14.023438 2.5 -21.863281 2.5 -31.625 C 2.5 -41.957031 5.410156 -50.097656 11.234375 -56.046875 C 17.117188 -62.023438 25.65625 -65.015625 36.84375 -65.015625 Z M 36.84375 -65.015625 "/></g></g></g><g fill="#000000" fill-opacity="1"><g transform="translate(172.532647, 89.530632)"><g><path d="M 31.28125 0.28125 C 29.75 0.09375 25.800781 0 19.4375 0 L 17.890625 0 L 17.890625 -53.0625 L 8.390625 -53.0625 C 5.578125 -53.0625 3.914062 -52.914062 3.40625 -52.625 C 2.894531 -52.34375 2.492188 -52.09375 2.203125 -51.875 L 2.0625 -51.921875 L 2.0625 -64.203125 L 2.203125 -64.34375 C 3.265625 -63.988281 6.113281 -63.8125 10.75 -63.8125 L 40.828125 -63.8125 C 43.640625 -63.8125 45.300781 -63.953125 45.8125 -64.234375 C 46.332031 -64.523438 46.734375 -64.785156 47.015625 -65.015625 L 47.171875 -64.96875 L 47.171875 -52.6875 L 47.015625 -52.546875 C 45.960938 -52.890625 43.117188 -53.0625 38.484375 -53.0625 L 31.28125 -53.0625 Z M 31.28125 0.28125 "/></g></g></g><g fill="#000000" fill-opacity="1"><g transform="translate(213.700086, 89.530632)"><g><path d="M 12.90625 0.390625 C 10.15625 0.128906 6.941406 0 3.265625 0 L -0.53125 0 L 20.34375 -58.484375 C 21.269531 -61.109375 21.734375 -62.632812 21.734375 -63.0625 C 21.734375 -63.5 21.71875 -63.765625 21.6875 -63.859375 L 21.734375 -63.953125 C 23.816406 -63.859375 26.023438 -63.8125 28.359375 -63.8125 C 30.273438 -63.8125 32.578125 -63.84375 35.265625 -63.90625 L 35.3125 -63.8125 C 35.25 -63.6875 35.21875 -63.507812 35.21875 -63.28125 C 35.21875 -62.675781 35.695312 -61.0625 36.65625 -58.4375 L 57.96875 0.140625 C 57.320312 0.109375 56.566406 0.09375 55.703125 0.09375 C 55.703125 0.09375 54.875 0.0625 53.21875 0 C 52.414062 0 51.691406 0 51.046875 0 L 43.609375 0 L 39.109375 -13.8125 L 17.421875 -13.8125 Z M 35.359375 -25.328125 L 28.109375 -47.640625 L 21.0625 -25.328125 Z M 35.359375 -25.328125 "/></g></g></g></g></g></svg>