<?xml version="1.0" standalone="no"?>
<!DOCTYPE svg PUBLIC "-//W3C//DTD SVG 20010904//EN"
 "http://www.w3.org/TR/2001/REC-SVG-20010904/DTD/svg10.dtd">
<svg version="1.0" xmlns="http://www.w3.org/2000/svg"
 width="1024.000000pt" height="1024.000000pt" viewBox="0 0 1024.000000 1024.000000"
 preserveAspectRatio="xMidYMid meet">

<g transform="translate(0.000000,1024.000000) scale(0.100000,-0.100000)"
fill="#000000" stroke="none">
<path d="M4330 9970 c-69 -12 -152 -47 -216 -89 -78 -50 -177 -157 -214 -231
-17 -33 -32 -60 -35 -60 -2 0 -21 32 -41 71 -146 277 -459 374 -752 232 -112
-55 -137 -85 -214 -263 -37 -85 -113 -258 -169 -385 -124 -282 -631 -1438
-1109 -2530 -127 -291 -247 -564 -265 -605 -18 -41 -58 -131 -88 -200 -85
-193 -298 -677 -425 -965 -63 -143 -156 -354 -207 -470 -51 -115 -105 -237
-120 -270 -19 -42 -29 -82 -32 -136 -5 -68 -2 -84 21 -135 30 -66 63 -105 119
-140 87 -56 11 -54 1799 -54 l1648 0 0 30 0 30 -1654 0 c-1837 0 -1712 -5
-1795 66 -67 58 -104 176 -78 249 8 22 99 231 202 465 379 859 602 1367 827
1880 127 289 317 723 423 965 106 242 324 739 485 1105 160 366 348 794 417
953 l126 287 53 35 c211 141 478 122 643 -44 54 -54 151 -219 151 -256 0 -8
-80 -198 -179 -422 -307 -701 -970 -2210 -1053 -2398 -44 -99 -119 -270 -167
-380 -49 -110 -242 -547 -430 -971 -187 -424 -341 -774 -341 -777 0 -7 45 -31
76 -41 20 -6 35 24 204 406 101 227 269 609 375 848 106 239 259 586 340 770
81 184 212 484 292 665 80 182 193 438 251 570 148 338 230 525 387 880 75
171 175 398 222 505 47 107 89 199 93 203 10 11 32 -31 470 -883 320 -622 732
-1422 945 -1835 45 -88 130 -252 187 -365 58 -113 153 -297 211 -410 57 -113
200 -392 317 -620 117 -228 245 -478 285 -555 40 -77 220 -426 400 -775 180
-349 353 -684 385 -745 32 -60 162 -312 290 -560 128 -247 303 -587 390 -755
87 -168 292 -566 455 -885 164 -319 299 -581 300 -583 1 -1 13 6 25 16 l23 19
-128 249 c-70 137 -177 346 -238 464 -60 118 -247 481 -415 805 -167 325 -412
799 -544 1055 -132 256 -302 584 -378 730 -76 146 -213 411 -305 590 -92 179
-196 379 -230 445 -54 103 -281 545 -782 1525 -130 253 -226 441 -466 905 -90
176 -244 475 -342 665 -97 190 -212 413 -255 495 -43 83 -160 310 -260 505
-100 195 -210 407 -243 471 l-61 116 39 94 c66 156 186 263 340 304 159 41
331 -11 460 -140 64 -64 43 -26 433 -780 76 -148 276 -535 444 -860 168 -324
383 -741 478 -925 95 -184 375 -726 622 -1205 606 -1171 588 -1137 821 -1585
112 -217 454 -879 760 -1470 563 -1091 1050 -2032 1204 -2327 47 -90 89 -163
95 -163 17 0 78 41 78 52 0 15 -152 311 -885 1728 -252 487 -431 835 -887
1720 -236 458 -380 734 -641 1235 -66 127 -189 365 -275 530 -536 1037 -943
1825 -1097 2125 -176 343 -274 532 -730 1415 -131 253 -249 478 -263 500 -65
104 -205 210 -339 256 -65 22 -197 32 -263 19z"/>
<path d="M3165 5071 c-112 -29 -177 -120 -177 -250 -1 -153 71 -246 204 -266
187 -28 324 158 264 359 -19 63 -57 110 -108 135 -48 23 -138 34 -183 22z
m123 -91 c55 -25 82 -79 82 -165 0 -139 -88 -214 -198 -170 -54 22 -82 68 -89
143 -14 158 82 248 205 192z"/>
<path d="M4168 5071 c-75 -15 -128 -75 -128 -144 0 -79 40 -116 163 -151 75
-22 101 -47 93 -90 -8 -41 -30 -56 -81 -56 -29 0 -56 9 -89 30 -49 31 -73 32
-97 4 -10 -12 -6 -21 21 -49 91 -94 275 -83 321 19 22 49 24 85 5 129 -19 46
-43 64 -126 92 -93 32 -120 49 -120 79 0 55 85 74 160 36 22 -11 44 -20 49
-20 10 0 41 50 41 65 0 10 -103 53 -140 58 -19 2 -51 1 -72 -2z"/>
<path d="M2635 5050 c-151 -74 -184 -312 -60 -435 84 -85 226 -87 308 -4 33
33 37 41 27 55 -30 35 -49 37 -85 5 -46 -40 -93 -48 -141 -25 -58 29 -78 64
-82 143 -5 82 8 128 47 165 45 43 105 46 171 10 l51 -29 20 24 c17 21 18 26 6
45 -42 62 -179 86 -262 46z"/>
<path d="M3547 5064 c-4 -4 -7 -119 -7 -256 l0 -248 45 0 45 0 0 165 c0 91 3
165 8 165 4 0 56 -75 116 -165 l110 -165 41 0 42 0 7 80 c4 45 3 160 0 256
l-7 175 -41 -3 -41 -3 -5 -175 -5 -175 -42 70 c-23 39 -74 117 -115 175 -67
96 -76 105 -109 108 -19 2 -38 0 -42 -4z"/>
<path d="M4457 5064 c-4 -4 -7 -119 -7 -256 l0 -248 170 0 170 0 0 40 0 40
-120 0 -120 0 0 65 0 65 105 0 105 0 0 40 c0 45 10 42 -122 40 l-88 -1 0 65 0
66 106 0 105 0 -3 43 -3 42 -146 3 c-80 1 -148 -1 -152 -4z"/>
<path d="M4867 5063 c-4 -3 -7 -118 -7 -255 l0 -249 48 3 47 3 -2 75 c-1 41
-2 155 -2 253 l-1 177 -38 0 c-21 0 -42 -3 -45 -7z"/>
<path d="M5047 5063 c-4 -3 -7 -118 -7 -255 l0 -248 160 0 160 0 0 40 0 39
-112 3 -113 3 -3 213 -2 212 -39 0 c-21 0 -41 -3 -44 -7z"/>
<path d="M6237 1428 c-3 -13 -26 -129 -51 -258 -26 -129 -48 -243 -50 -252 -7
-29 60 -25 67 3 l6 21 33 -23 c65 -46 145 -21 204 64 62 89 68 210 14 271 -25
27 -35 31 -78 31 -37 0 -59 -6 -82 -23 -17 -13 -33 -22 -35 -20 -2 2 5 44 15
93 25 117 25 115 -9 115 -22 0 -30 -6 -34 -22z m181 -215 c6 -9 12 -42 12 -72
-1 -142 -113 -239 -195 -168 l-26 22 19 83 c28 117 78 168 152 155 14 -2 31
-11 38 -20z"/>
<path d="M6655 1438 c-2 -7 -24 -120 -49 -251 -47 -245 -48 -276 -10 -291 42
-16 70 19 41 53 -12 14 -7 52 34 251 26 129 48 238 48 243 1 12 -59 8 -64 -5z"/>
<path d="M2633 1414 c-29 -45 18 -85 58 -48 22 20 25 44 7 62 -20 20 -46 14
-65 -14z"/>
<path d="M3784 1409 c-51 -15 -120 -84 -155 -155 -28 -56 -33 -76 -33 -142 0
-55 5 -87 18 -111 59 -111 202 -142 304 -65 35 27 40 45 17 64 -13 11 -19 9
-38 -7 -35 -32 -62 -43 -109 -43 -54 0 -85 21 -109 74 -33 72 -18 166 41 259
53 84 152 111 225 62 35 -25 38 -25 56 -9 15 14 17 20 6 32 -35 43 -146 64
-223 41z"/>
<path d="M580 1406 c0 -3 -20 -110 -45 -239 -25 -129 -45 -242 -45 -251 0 -14
18 -16 139 -16 117 0 140 2 145 16 16 42 11 44 -105 44 -88 0 -110 3 -106 13
3 7 11 48 17 90 l13 76 96 3 96 3 3 28 3 27 -92 0 -91 0 6 33 c4 17 9 51 13
74 l6 42 111 3 111 3 3 28 3 27 -140 0 c-78 0 -141 -2 -141 -4z"/>
<path d="M2386 1372 c-3 -5 -8 -28 -12 -50 -6 -39 -9 -42 -39 -42 -24 0 -34
-5 -38 -19 -6 -25 0 -31 30 -31 28 0 28 -3 3 -125 -11 -53 -20 -112 -20 -131
0 -47 32 -74 86 -74 58 0 74 8 74 36 0 22 -3 24 -38 18 -63 -10 -67 4 -40 147
l24 124 49 5 c42 4 50 8 53 28 3 20 -1 22 -43 22 l-47 0 7 38 c4 20 7 42 8 47
2 13 -49 19 -57 7z"/>
<path d="M5563 1364 c-3 -9 -9 -30 -12 -48 -6 -27 -11 -31 -44 -34 -32 -3 -37
-7 -37 -28 0 -20 5 -24 30 -24 36 0 36 2 5 -138 -34 -156 -19 -192 77 -192 55
0 72 11 63 39 -5 18 -12 21 -39 16 -58 -11 -63 7 -35 148 l24 122 50 5 c42 4
50 8 53 28 3 20 -1 22 -43 22 l-46 0 7 50 c6 49 6 50 -20 50 -15 0 -29 -7 -33
-16z"/>
<path d="M1420 1283 c-8 -3 -27 -15 -42 -25 -28 -19 -28 -19 -28 1 0 17 -6 21
-29 21 -28 0 -30 -4 -40 -52 -67 -322 -97 -484 -90 -492 4 -5 18 -6 32 -2 22
5 26 15 43 111 10 58 21 105 25 105 4 0 13 -7 20 -17 41 -48 119 -47 178 3 64
54 106 192 82 267 -22 66 -91 102 -151 80z m70 -63 c15 -15 20 -33 20 -77 -1
-143 -106 -239 -186 -170 l-27 23 14 73 c15 85 40 129 89 153 45 23 65 23 90
-2z"/>
<path d="M1762 1269 c-23 -11 -51 -34 -62 -49 -108 -152 -63 -325 85 -324 80
0 167 56 136 87 -7 7 -18 5 -33 -5 -47 -31 -97 -41 -130 -27 -32 13 -58 59
-58 104 0 23 3 25 48 26 127 1 176 10 200 35 33 37 30 95 -6 135 -39 43 -116
51 -180 18z m126 -49 c26 -24 28 -52 6 -74 -11 -12 -36 -16 -95 -16 -90 0 -97
8 -52 60 44 53 103 65 141 30z"/>
<path d="M2172 1265 c-36 -30 -42 -31 -42 -4 0 15 -5 20 -22 17 -20 -3 -25
-17 -53 -158 -17 -85 -34 -170 -38 -188 -7 -32 -6 -33 25 -30 l31 3 22 110
c22 112 45 174 72 197 8 7 35 11 59 10 39 -1 44 1 50 23 3 13 3 29 -1 34 -12
20 -72 12 -103 -14z"/>
<path d="M2818 1270 c-57 -31 -83 -94 -58 -140 5 -10 36 -28 67 -40 74 -28 83
-36 83 -75 0 -38 -23 -61 -70 -70 -28 -5 -43 -1 -74 20 -37 25 -39 25 -58 8
-19 -17 -19 -18 6 -40 15 -12 45 -27 68 -34 96 -25 188 40 188 134 0 41 -26
67 -92 92 -26 10 -53 24 -59 31 -17 21 -6 57 23 73 23 13 34 14 74 3 40 -11
50 -11 62 2 12 12 11 16 -12 31 -40 27 -104 29 -148 5z"/>
<path d="M3160 1268 c-112 -57 -163 -244 -89 -325 55 -59 133 -65 217 -17 70
41 52 80 -20 43 -23 -12 -60 -22 -81 -23 -51 -1 -87 37 -87 93 l0 38 110 5
c122 5 145 16 156 73 19 105 -96 168 -206 113z m118 -44 c24 -17 30 -62 10
-82 -14 -14 -164 -17 -172 -4 -9 14 32 66 66 85 40 21 67 22 96 1z"/>
<path d="M4145 1271 c-80 -37 -127 -114 -128 -211 -1 -119 85 -189 195 -160
82 22 158 132 158 230 0 20 -10 56 -22 80 -39 75 -120 100 -203 61z m130 -56
c21 -20 25 -34 25 -82 -1 -106 -57 -188 -132 -188 -79 0 -109 79 -72 188 32
95 125 137 179 82z"/>
<path d="M4605 1275 c-16 -9 -36 -23 -42 -32 -11 -15 -13 -14 -13 10 0 23 -4
27 -30 27 -26 0 -30 -4 -36 -37 -3 -21 -19 -103 -35 -182 -16 -79 -29 -148
-29 -153 0 -4 13 -8 29 -8 28 0 28 1 51 112 25 130 36 153 85 197 43 37 79 40
100 8 14 -21 13 -36 -10 -158 -14 -74 -25 -140 -25 -146 0 -8 12 -13 29 -13
l28 0 22 119 c16 85 29 129 47 152 43 59 104 85 132 57 17 -17 15 -61 -7 -169
-35 -174 -34 -159 -1 -159 34 0 29 -14 65 176 18 96 23 139 16 157 -28 72
-133 76 -195 8 -22 -24 -36 -27 -36 -7 0 23 -50 56 -84 56 -17 0 -44 -7 -61
-15z"/>
<path d="M5250 1283 c-8 -3 -27 -14 -42 -24 -33 -24 -40 -24 -36 -1 2 13 -4
17 -26 17 l-29 0 -52 -265 c-29 -146 -51 -268 -48 -272 2 -5 15 -8 28 -8 27 0
27 1 51 125 9 50 19 92 21 94 1 3 13 -5 26 -17 74 -69 175 -34 231 81 50 101
43 202 -15 251 -30 25 -73 32 -109 19z m70 -63 c43 -43 17 -183 -44 -245 -33
-33 -85 -34 -122 -1 l-28 23 13 71 c15 83 42 130 91 154 45 23 65 23 90 -2z"/>
<path d="M5834 1265 c-52 -31 -89 -85 -108 -159 -43 -163 84 -276 198 -176 42
37 47 37 40 0 -6 -27 -4 -30 19 -30 14 0 28 4 31 8 4 7 76 355 76 368 0 2 -13
4 -29 4 -23 0 -30 -5 -36 -27 l-7 -28 -16 22 c-40 49 -104 56 -168 18z m147
-53 l30 -27 -12 -70 c-11 -58 -20 -77 -52 -112 -82 -89 -167 -72 -167 34 0
151 115 252 201 175z"/>
<path d="M6862 1269 c-98 -50 -153 -207 -103 -299 27 -53 84 -82 145 -76 59 6
126 47 126 76 0 24 -13 25 -44 5 -93 -61 -186 -22 -186 78 0 24 2 24 113 30
105 5 113 8 135 32 32 38 30 96 -6 136 -39 43 -116 51 -180 18z m128 -49 c24
-24 26 -53 4 -74 -20 -21 -174 -23 -174 -3 0 21 30 57 64 78 40 24 81 24 106
-1z"/>
<path d="M900 1275 c0 -3 14 -33 31 -66 56 -112 58 -98 -31 -204 -44 -52 -80
-97 -80 -100 0 -3 15 -5 33 -5 29 0 39 9 90 75 32 41 62 75 67 75 4 0 21 -32
36 -71 30 -75 37 -82 77 -77 l26 3 -36 75 c-59 128 -61 110 17 202 38 46 70
86 70 91 0 4 -15 7 -32 7 -28 0 -41 -10 -87 -67 l-54 -66 -30 66 c-28 63 -31
67 -63 67 -19 0 -34 -2 -34 -5z"/>
<path d="M2581 1113 c-18 -93 -35 -178 -38 -190 -4 -20 -1 -23 26 -23 24 0 32
5 36 23 12 53 65 333 65 345 0 7 -12 12 -29 12 l-29 0 -31 -167z"/>
</g>
</svg>
