<?xml version="1.0" standalone="no"?>
<!DOCTYPE svg PUBLIC "-//W3C//DTD SVG 20010904//EN"
 "http://www.w3.org/TR/2001/REC-SVG-20010904/DTD/svg10.dtd">
<svg version="1.0" xmlns="http://www.w3.org/2000/svg"
 width="600.000000pt" height="208.000000pt" viewBox="0 0 600.000000 208.000000"
 preserveAspectRatio="xMidYMid meet">

<g transform="translate(0.000000,208.000000) scale(0.100000,-0.100000)"
fill="#000000" stroke="none">
<path d="M1207 2069 c-86 -20 -171 -88 -202 -161 -18 -44 -20 -125 -3 -180 17
-56 78 -121 140 -148 77 -34 204 -39 278 -11 142 53 210 184 168 322 -39 133
-218 216 -381 178z m169 -48 c45 -21 85 -67 103 -120 17 -52 13 -150 -8 -196
-36 -79 -131 -135 -204 -120 -143 31 -212 185 -150 335 41 101 158 147 259
101z"/>
<path d="M2451 2059 c-79 -25 -160 -100 -179 -165 -43 -147 35 -286 185 -330
82 -24 202 -16 269 19 96 49 144 129 144 238 -1 185 -213 306 -419 238z m194
-38 c77 -36 117 -106 117 -207 1 -242 -286 -318 -377 -100 -19 44 -21 148 -5
191 42 112 162 164 265 116z"/>
<path d="M3235 2066 c-175 -45 -263 -191 -209 -349 20 -60 96 -129 165 -152
76 -26 218 -18 284 15 l50 25 3 65 c3 72 12 87 50 93 15 2 -31 4 -103 4 -85 1
-118 -2 -96 -7 43 -10 51 -23 51 -86 0 -51 -1 -52 -40 -68 -151 -60 -283 51
-267 224 19 210 233 284 335 115 15 -24 31 -45 35 -45 4 0 5 24 2 53 -11 92
-12 96 -53 106 -66 18 -155 21 -207 7z"/>
<path d="M4275 2066 c-92 -23 -150 -65 -190 -138 -37 -68 -40 -161 -7 -224 30
-58 105 -121 165 -139 74 -22 185 -19 252 6 74 28 140 94 160 161 19 64 19 92
1 152 -28 91 -98 152 -208 182 -63 16 -106 17 -173 0z m176 -49 c98 -52 138
-196 86 -310 -43 -94 -130 -140 -219 -117 -57 16 -103 52 -130 103 -31 58 -32
175 -1 232 56 105 166 143 264 92z"/>
<path d="M95 2061 c-50 -4 -80 -8 -69 -9 45 -4 49 -23 49 -226 0 -105 -3 -203
-8 -218 -5 -19 -17 -30 -40 -37 -25 -7 -5 -10 93 -13 183 -4 239 -1 287 17 56
21 93 66 93 111 0 63 -20 87 -108 131 -2 1 14 17 35 36 33 31 38 41 37 77 -3
106 -124 149 -369 131z m230 -62 c29 -26 35 -38 35 -71 0 -74 -66 -107 -167
-83 -22 5 -23 10 -23 95 l0 90 60 0 c52 0 64 -4 95 -31z m35 -210 c11 -8 27
-33 35 -57 29 -84 -24 -142 -130 -142 -35 0 -52 6 -70 25 -23 22 -25 32 -25
107 l0 83 84 -1 c55 0 92 -6 106 -15z"/>
<path d="M647 2055 c17 -7 36 -22 42 -34 16 -29 15 -402 -2 -424 -6 -10 -26
-21 -42 -26 -21 -7 8 -9 100 -9 72 0 121 3 110 5 -53 13 -55 21 -55 242 0 113
4 212 9 220 5 8 22 20 38 27 24 11 11 12 -102 13 -119 0 -127 -1 -98 -14z"/>
<path d="M5501 2051 c19 -9 36 -26 40 -41 12 -42 10 -364 -2 -398 -8 -23 -20
-35 -42 -41 -22 -7 33 -9 179 -8 l211 2 35 27 c32 24 84 106 74 116 -3 2 -23
-14 -46 -37 -24 -23 -62 -47 -90 -56 -50 -17 -188 -24 -209 -11 -7 5 -11 44
-11 112 l0 104 53 0 c66 0 97 -16 119 -60 l17 -35 0 115 c0 106 -1 113 -14 83
-18 -43 -50 -61 -118 -69 l-57 -7 0 92 0 91 88 0 c103 0 149 -18 172 -67 20
-44 34 -41 26 5 -3 20 -6 51 -6 67 l0 30 -226 1 c-215 1 -225 0 -193 -15z"/>
<path d="M1727 2053 c44 -9 48 -25 51 -235 4 -220 -1 -243 -55 -251 -16 -2 54
-5 155 -6 196 -1 227 5 269 50 18 20 53 96 53 116 0 3 -20 -17 -45 -45 -59
-65 -107 -84 -205 -80 l-75 3 -3 196 c-3 221 1 233 68 249 24 5 -9 8 -100 8
-74 -1 -125 -3 -113 -5z"/>
<path d="M3717 2053 c48 -9 53 -32 53 -249 0 -213 -1 -219 -50 -237 -8 -3 39
-5 105 -5 66 0 111 3 100 5 -53 13 -55 21 -55 243 0 219 1 225 50 243 8 3 -39
5 -105 5 -66 0 -110 -3 -98 -5z"/>
<path d="M4796 2050 c12 -5 26 -15 30 -22 5 -7 11 -92 14 -189 5 -172 6 -176
32 -211 40 -52 89 -72 188 -76 77 -3 90 -1 140 25 32 16 64 42 77 62 21 31 23
45 23 180 0 172 9 215 48 229 21 8 5 10 -73 11 -62 0 -92 -3 -80 -9 46 -18 50
-34 50 -201 0 -144 -2 -160 -21 -186 -69 -92 -218 -88 -266 7 -15 29 -18 62
-18 185 0 162 7 189 53 198 12 2 -32 5 -98 5 -77 0 -112 -2 -99 -8z"/>
<path d="M4235 1524 c-72 -17 -105 -28 -105 -34 0 -4 19 -4 42 2 75 16 133 1
293 -75 149 -72 150 -72 230 -71 93 1 169 26 228 75 21 17 36 33 34 35 -2 3
-26 -5 -53 -17 -28 -12 -81 -23 -124 -26 -69 -5 -85 -2 -180 32 -193 68 -305
93 -365 79z"/>
<path d="M1524 1185 c-145 -54 -216 -227 -148 -363 28 -56 63 -91 128 -125 32
-17 58 -22 121 -22 70 0 87 4 134 30 55 30 121 98 121 123 0 9 -16 0 -41 -23
-108 -97 -241 -108 -319 -26 -65 68 -80 187 -35 277 42 84 113 121 199 102 49
-10 110 -67 122 -113 11 -45 21 -26 17 33 -8 114 -4 111 -158 117 -74 4 -111
1 -141 -10z"/>
<path d="M4198 1167 c-130 -67 -183 -219 -119 -345 29 -56 104 -119 164 -137
113 -34 204 -10 289 76 64 64 73 107 9 46 -87 -84 -209 -107 -288 -55 -47 31
-81 93 -89 164 -18 148 96 272 223 244 51 -12 83 -39 116 -96 l28 -49 -5 49
c-3 27 -6 63 -6 81 0 31 -2 33 -57 44 -31 6 -89 11 -129 11 -62 0 -81 -5 -136
-33z"/>
<path d="M26 1183 c49 -10 56 -32 61 -195 2 -84 1 -180 -4 -213 -7 -55 -11
-61 -43 -77 -35 -17 -35 -17 95 -17 121 0 128 1 97 14 -41 18 -52 48 -52 147
0 78 1 80 23 74 12 -3 27 -6 33 -6 6 0 37 -39 69 -86 78 -113 98 -126 194
-131 l76 -4 -40 19 c-45 21 -128 109 -164 171 l-22 40 33 14 c38 17 83 62 92
94 13 43 -12 101 -56 131 -41 27 -43 27 -227 29 -102 0 -176 -1 -165 -4z m311
-50 c12 -8 27 -30 33 -49 26 -77 -52 -147 -143 -130 l-37 7 0 94 0 94 28 4
c38 6 93 -4 119 -20z"/>
<path d="M709 1173 c16 -7 35 -21 41 -32 13 -25 14 -380 0 -415 -6 -16 -21
-29 -42 -35 -24 -7 22 -9 164 -10 204 -1 235 4 276 42 25 23 67 96 59 103 -2
2 -23 -14 -47 -36 -56 -52 -122 -72 -227 -68 l-78 3 -3 108 -3 107 56 0 c76 0
124 -28 125 -72 0 -10 4 -18 8 -18 5 0 8 50 8 110 0 61 -1 110 -3 110 -2 0 -9
-14 -15 -30 -13 -39 -49 -58 -118 -61 l-55 -3 0 84 0 85 88 3 c105 3 143 -11
175 -66 l22 -37 0 70 0 70 -231 0 c-193 0 -226 -2 -200 -12z"/>
<path d="M1995 1183 c53 -13 55 -21 55 -242 0 -113 -4 -212 -9 -220 -5 -8 -22
-20 -38 -27 -24 -11 -11 -12 102 -13 119 0 127 1 98 14 -45 19 -53 42 -53 149
l0 96 140 0 140 0 0 -96 c0 -107 -8 -130 -53 -149 -29 -13 -20 -14 103 -14
107 0 129 3 105 11 -56 20 -55 15 -55 243 0 189 2 214 18 227 9 9 26 18 37 21
11 2 -38 5 -110 5 -98 0 -122 -2 -97 -9 41 -12 52 -39 52 -130 l0 -69 -140 0
-140 0 0 69 c0 91 11 118 52 130 25 7 1 9 -97 9 -71 0 -121 -3 -110 -5z"/>
<path d="M2779 1173 c16 -7 35 -21 41 -32 15 -29 13 -402 -3 -424 -6 -10 -26
-21 -42 -26 -20 -6 37 -10 173 -10 236 -1 262 6 307 82 36 63 31 75 -14 34
-67 -60 -96 -71 -208 -75 l-103 -4 0 111 0 111 50 0 c64 0 95 -15 115 -56 9
-19 17 -34 19 -34 2 0 3 50 3 110 0 61 -2 110 -4 110 -2 0 -9 -14 -15 -30 -13
-39 -39 -53 -110 -60 l-58 -6 0 88 0 88 86 0 c103 0 142 -15 172 -68 l22 -37
0 70 0 70 -231 0 c-193 0 -226 -2 -200 -12z"/>
<path d="M3426 1180 c18 -6 36 -21 42 -35 15 -32 16 -372 2 -410 -5 -14 -24
-32 -42 -40 -31 -13 -24 -14 97 -14 120 1 127 2 98 15 -17 7 -34 18 -37 23 -4
5 -7 51 -7 103 l-2 93 29 -3 c17 -1 37 -13 49 -29 11 -15 40 -53 65 -86 65
-88 87 -101 173 -105 l72 -3 -40 19 c-45 21 -128 109 -164 171 l-22 40 33 14
c79 34 115 112 81 177 -35 66 -64 75 -273 77 -128 1 -175 -1 -154 -7z m257
-31 c54 -15 77 -44 77 -96 0 -35 -6 -49 -26 -68 -30 -28 -79 -40 -123 -30
l-31 7 0 93 0 94 28 4 c15 2 29 5 32 5 3 1 22 -3 43 -9z"/>
<path d="M4725 1179 c16 -5 36 -16 42 -26 17 -22 18 -395 2 -424 -6 -12 -25
-27 -42 -34 -29 -13 -20 -14 103 -14 117 0 131 2 102 12 -18 7 -37 19 -42 27
-5 8 -10 61 -10 118 l0 102 135 0 135 0 0 -102 c0 -57 -4 -108 -8 -115 -4 -7
-23 -19 -42 -27 -33 -15 -29 -15 100 -15 117 0 131 2 102 12 -18 7 -37 19 -42
27 -5 8 -10 105 -10 215 0 216 5 239 53 248 12 2 -36 4 -108 4 -71 0 -119 -2
-105 -4 50 -9 60 -29 60 -120 l0 -83 -141 0 -142 0 6 81 c6 85 20 114 61 122
11 2 -37 5 -109 5 -91 0 -121 -2 -100 -9z"/>
<path d="M5503 1170 c18 -9 34 -26 38 -40 12 -42 10 -364 -2 -398 -8 -23 -20
-35 -42 -41 -22 -6 28 -9 165 -10 204 -1 235 4 276 42 26 24 66 96 59 104 -3
2 -24 -14 -47 -36 -55 -53 -121 -73 -227 -69 l-78 3 -3 108 -3 107 58 0 c67 0
98 -17 119 -64 12 -28 13 -22 13 84 0 106 -1 113 -14 83 -19 -43 -50 -61 -115
-64 l-55 -3 -3 87 -3 87 93 0 c106 0 144 -16 175 -72 l18 -33 3 29 c2 17 1 48
-2 70 l-6 41 -225 0 c-206 0 -222 -1 -192 -15z"/>
<path d="M2370 176 c0 -159 1 -166 20 -166 18 0 20 7 20 59 l0 59 65 4 c55 3
70 8 93 31 38 39 38 105 0 144 -24 24 -36 27 -112 31 l-86 5 0 -167z m166 89
c35 -53 -3 -95 -87 -95 l-39 0 0 60 0 60 55 0 c47 0 57 -3 71 -25z"/>
<path d="M2677 175 c-55 -162 -56 -165 -33 -165 18 0 27 10 39 40 l15 40 60 0
59 0 12 -40 c10 -33 16 -40 37 -40 19 0 25 4 20 15 -3 8 -29 82 -57 165 -46
133 -54 150 -74 150 -20 0 -28 -18 -78 -165z m99 33 c9 -29 19 -59 22 -65 3
-9 -9 -13 -43 -13 -34 0 -46 4 -43 13 3 6 13 36 22 65 10 28 19 52 21 52 2 0
11 -24 21 -52z"/>
<path d="M2970 175 c0 -158 1 -165 20 -165 18 0 20 7 20 65 l0 65 35 0 c33 0
37 -3 67 -65 28 -57 36 -65 60 -65 l28 0 -35 70 c-19 39 -30 70 -25 70 25 0
60 50 60 85 0 76 -44 105 -160 105 l-70 0 0 -165z m175 91 c34 -52 -16 -94
-101 -84 -27 3 -29 6 -32 56 l-3 52 60 0 c53 0 63 -3 76 -24z"/>
<path d="M3290 175 c0 -158 1 -165 20 -165 19 0 20 7 20 165 0 158 -1 165 -20
165 -19 0 -20 -7 -20 -165z"/>
<path d="M3450 312 c-57 -57 -31 -125 61 -158 61 -22 86 -52 69 -83 -17 -33
-58 -38 -104 -13 -29 17 -42 19 -52 11 -22 -18 -17 -27 26 -49 47 -24 90 -26
130 -5 35 18 50 43 50 82 0 44 -25 71 -96 103 -60 27 -65 32 -62 57 4 40 46
53 94 30 34 -17 37 -17 49 0 11 15 10 20 -8 32 -11 8 -44 17 -73 19 -49 4 -56
2 -84 -26z"/>
</g>
</svg>
