<?xml version="1.0" standalone="no"?>
<!DOCTYPE svg PUBLIC "-//W3C//DTD SVG 20010904//EN"
 "http://www.w3.org/TR/2001/REC-SVG-20010904/DTD/svg10.dtd">
<svg version="1.0" xmlns="http://www.w3.org/2000/svg"
 width="1928.000000pt" height="1771.000000pt" viewBox="0 0 1928.000000 1771.000000"
 preserveAspectRatio="xMidYMid meet">

<g transform="translate(0.000000,1771.000000) scale(0.100000,-0.100000)"
fill="#000000" stroke="none">
<path d="M9736 16520 c-1256 -98 -2356 -702 -3104 -1703 -579 -775 -878 -1767
-824 -2729 24 -423 85 -747 212 -1128 360 -1083 1146 -1975 2174 -2471 433
-208 881 -336 1384 -396 184 -21 688 -24 862 -5 291 33 510 75 760 147 692
198 1317 569 1830 1085 160 161 337 368 324 379 -69 62 -338 261 -344 255 -4
-5 -43 -52 -86 -104 -102 -125 -332 -354 -464 -461 -600 -491 -1241 -764
-2020 -861 -141 -17 -679 -17 -820 0 -387 48 -751 143 -1069 279 -1165 498
-2009 1542 -2245 2778 -50 264 -61 388 -61 715 0 335 11 455 66 740 142 724
508 1409 1039 1940 594 594 1352 968 2194 1081 217 29 608 36 826 15 1052
-101 1973 -598 2635 -1424 2 -2 79 56 172 129 92 73 170 134 172 136 5 4 -127
160 -241 283 -249 271 -639 579 -982 775 -487 278 -1041 459 -1611 526 -193
23 -604 33 -779 19z"/>
<path d="M9760 14749 c-784 -95 -1455 -530 -1852 -1202 -369 -624 -441 -1395
-193 -2087 264 -740 898 -1326 1660 -1535 246 -67 348 -80 655 -80 243 0 290
3 403 23 428 77 811 249 1142 512 122 97 409 391 394 404 -2 1 -89 69 -193
151 l-189 147 -41 -48 c-295 -351 -697 -588 -1142 -674 -465 -90 -962 -5
-1367 234 -462 271 -792 710 -922 1225 -46 184 -58 306 -52 536 6 225 26 356
83 536 162 512 539 950 1016 1182 282 136 552 198 867 198 245 0 446 -34 665
-111 303 -107 600 -307 808 -544 39 -45 75 -82 79 -84 8 -4 379 286 379 296 0
15 -190 221 -266 288 -378 337 -778 531 -1269 615 -136 24 -532 35 -665 18z"/>
<path d="M2487 6759 c-528 -56 -1005 -419 -1202 -917 -155 -392 -136 -821 52
-1197 139 -277 379 -517 656 -657 322 -161 716 -196 1072 -93 249 72 505 233
670 424 68 78 109 131 104 135 -2 2 -51 40 -109 86 l-104 83 -35 -44 c-63 -80
-198 -206 -276 -259 -351 -237 -794 -271 -1171 -91 -136 65 -211 117 -323 226
-162 157 -273 350 -328 574 -23 91 -27 128 -27 261 -1 94 4 183 13 225 96 483
458 849 942 952 111 23 352 23 459 -1 290 -64 519 -207 712 -443 15 -18 29
-33 32 -33 2 0 52 38 110 84 l106 84 -42 53 c-305 390 -809 601 -1311 548z"/>
<path d="M6210 5290 l0 -1380 140 0 140 0 0 1380 0 1380 -140 0 -140 0 0
-1380z"/>
<path d="M12250 5290 l0 -1380 140 0 140 0 0 117 0 117 43 -41 c108 -104 228
-171 376 -210 197 -51 452 -28 622 57 251 126 401 336 469 657 27 124 38 427
21 555 -52 391 -252 664 -565 769 -315 106 -685 37 -907 -168 l-59 -55 0 481
0 481 -140 0 -140 0 0 -1380z m1055 415 c170 -36 305 -146 389 -316 65 -131
87 -225 93 -390 17 -435 -166 -779 -452 -854 -75 -19 -231 -19 -313 0 -157 37
-301 157 -380 316 -137 276 -143 688 -15 942 51 102 157 206 255 251 133 62
286 80 423 51z"/>
<path d="M4753 5966 c-102 -20 -166 -42 -263 -93 -233 -121 -396 -344 -471
-646 -26 -106 -37 -377 -20 -496 66 -449 332 -761 723 -847 111 -25 310 -23
423 5 186 45 365 158 479 302 150 190 223 405 233 684 19 537 -252 959 -692
1075 -103 28 -309 35 -412 16z m357 -275 c208 -65 368 -251 437 -509 24 -86
27 -115 26 -262 0 -176 -12 -246 -67 -380 -80 -201 -237 -347 -422 -395 -76
-20 -242 -20 -319 0 -299 76 -495 383 -495 775 0 423 212 729 548 790 71 13
219 4 292 -19z"/>
<path d="M7633 5965 c-189 -34 -345 -118 -479 -257 -143 -147 -230 -329 -269
-567 -25 -150 -17 -398 18 -532 99 -382 328 -627 665 -716 139 -36 335 -36
473 0 350 92 589 360 675 757 22 101 29 333 15 445 -35 268 -140 488 -309 646
-89 84 -172 136 -284 179 -146 56 -344 74 -505 45z m347 -271 c242 -72 413
-291 466 -598 22 -126 14 -307 -20 -438 -69 -267 -237 -454 -461 -513 -77 -20
-243 -20 -320 0 -105 28 -184 74 -266 155 -63 63 -85 94 -128 181 -66 133 -91
232 -98 385 -7 145 7 255 48 379 43 129 91 209 178 296 97 97 204 152 336 173
55 8 209 -3 265 -20z"/>
<path d="M9765 5964 c-103 -22 -242 -93 -314 -160 l-60 -55 -3 93 -3 93 -137
3 -138 3 0 -1016 0 -1015 140 0 140 0 0 646 c0 719 0 722 68 864 89 188 300
313 496 296 182 -17 293 -129 326 -328 6 -39 10 -338 10 -770 l0 -708 139 0
140 0 3 673 c4 666 4 673 27 747 47 155 138 276 251 333 61 30 171 57 237 57
147 0 272 -71 333 -189 49 -96 50 -117 50 -893 l0 -728 140 0 141 0 -3 768
c-4 855 -1 814 -76 972 -46 98 -158 213 -252 258 -110 53 -178 67 -335 66
-156 0 -226 -14 -329 -66 -89 -45 -193 -133 -234 -200 -9 -16 -19 -28 -22 -28
-3 0 -18 20 -33 45 -63 100 -202 193 -342 231 -87 23 -273 27 -360 8z"/>
<path d="M17075 5966 c-109 -17 -186 -41 -269 -83 -77 -39 -175 -126 -212
-189 -63 -107 -85 -245 -61 -380 21 -114 58 -187 136 -265 112 -112 240 -163
606 -239 292 -61 393 -96 463 -163 58 -55 77 -102 77 -192 0 -70 -4 -87 -29
-133 -71 -127 -235 -193 -485 -193 -188 1 -316 46 -421 151 -86 86 -128 185
-145 343 l-6 57 -134 0 c-74 0 -136 -3 -138 -7 -8 -16 12 -211 28 -273 104
-402 512 -602 1046 -514 179 29 319 94 419 194 100 100 150 225 150 380 0 183
-70 333 -200 431 -114 85 -230 127 -527 190 -311 65 -415 100 -492 165 -99 83
-104 251 -10 345 83 83 215 123 404 123 315 0 462 -113 486 -372 4 -53 8 -98
9 -99 0 -2 61 -3 135 -3 l135 0 0 93 c0 228 -103 425 -279 532 -73 44 -214 91
-314 104 -101 14 -270 12 -372 -3z"/>
<path d="M14482 5193 c4 -736 4 -749 26 -828 55 -201 162 -343 312 -417 261
-128 621 -108 855 47 30 20 77 57 105 82 l50 45 0 -106 0 -106 140 0 140 0 0
1015 0 1015 -140 0 -139 0 -3 -637 c-4 -715 -2 -688 -79 -851 -73 -152 -208
-266 -365 -307 -73 -19 -251 -20 -320 -1 -117 31 -203 100 -251 203 -51 109
-53 150 -53 899 l0 694 -140 0 -141 0 3 -747z"/>
</g>
</svg>
