<?xml version="1.0" standalone="no"?>
<!DOCTYPE svg PUBLIC "-//W3C//DTD SVG 20010904//EN"
 "http://www.w3.org/TR/2001/REC-SVG-20010904/DTD/svg10.dtd">
<svg version="1.0" xmlns="http://www.w3.org/2000/svg"
 width="1024.000000pt" height="1024.000000pt" viewBox="0 0 1024.000000 1024.000000"
 preserveAspectRatio="xMidYMid meet">

<g transform="translate(0.000000,1024.000000) scale(0.100000,-0.100000)"
fill="#000000" stroke="none">
<path d="M7300 6729 c-119 -20 -211 -84 -257 -177 -24 -49 -28 -69 -28 -142 0
-70 4 -93 23 -130 49 -95 124 -150 283 -208 138 -52 180 -74 216 -116 44 -50
51 -104 21 -163 -30 -61 -87 -93 -167 -93 -108 0 -133 14 -232 129 -18 20 -27
23 -72 18 -136 -13 -130 -169 10 -258 145 -91 335 -103 488 -30 103 49 163
122 191 231 20 80 13 152 -23 233 -46 102 -130 160 -338 233 -89 31 -118 46
-152 80 -37 35 -43 47 -43 82 0 89 99 147 210 123 69 -15 97 -35 131 -97 37
-65 86 -82 148 -49 87 45 49 190 -71 269 -87 57 -225 84 -338 65z"/>
<path d="M640 6291 l0 -430 53 53 c135 135 373 250 634 308 134 30 491 32 626
5 477 -97 826 -386 965 -800 l30 -87 16 66 c40 158 44 417 11 609 -41 237
-167 523 -294 668 l-33 37 -1004 0 -1004 0 0 -429z"/>
<path d="M2873 6647 c295 -411 352 -1080 131 -1546 -137 -290 -370 -516 -661
-640 l-67 -29 55 -11 c155 -32 370 -40 534 -20 261 32 505 137 645 278 55 55
69 76 83 126 38 130 40 159 44 1043 l4 872 -410 0 -410 0 52 -73z"/>
<path d="M5532 6700 c-18 -11 -41 -34 -52 -52 -19 -31 -20 -51 -20 -407 l0
-373 -27 -50 c-79 -144 -295 -136 -357 14 -9 21 -16 48 -16 61 0 14 -9 36 -21
51 -37 47 -113 31 -156 -33 -55 -81 0 -232 114 -316 80 -58 156 -78 281 -73
95 3 114 7 173 36 73 35 135 95 170 164 46 90 49 119 49 551 0 394 -1 408 -20
427 -26 26 -75 26 -118 0z"/>
<path d="M5952 6700 c-18 -11 -41 -34 -52 -52 -19 -31 -20 -51 -20 -385 0
-219 4 -372 11 -405 40 -190 186 -321 390 -350 196 -28 391 54 476 200 59 100
63 139 63 574 0 385 -1 399 -20 418 -38 38 -113 20 -164 -40 l-26 -32 0 -357
c0 -406 -3 -431 -67 -493 -51 -49 -96 -69 -163 -75 -114 -11 -216 42 -262 134
-23 47 -23 54 -28 451 -5 385 -6 404 -24 418 -28 20 -75 17 -114 -6z"/>
<path d="M1415 6096 c-236 -39 -446 -133 -612 -274 -85 -73 -128 -128 -145
-186 -17 -57 -16 -425 1 -546 66 -476 300 -877 649 -1119 l34 -24 -26 51
c-188 371 -229 914 -100 1301 124 369 406 661 718 741 39 10 64 21 56 23 -109
39 -429 57 -575 33z"/>
<path d="M7520 5141 c-134 -43 -228 -144 -266 -286 -10 -38 -14 -146 -14 -436
0 -373 1 -387 20 -412 11 -14 29 -29 40 -32 31 -10 97 13 119 42 20 25 21 38
21 385 0 229 4 375 11 403 15 59 68 119 124 141 33 12 63 15 116 12 93 -7 141
-39 184 -123 l30 -59 5 -379 5 -379 28 -24 c15 -13 36 -24 45 -24 30 1 100 38
112 59 8 16 10 138 8 424 l-3 402 -31 66 c-55 116 -131 181 -255 220 -80 25
-222 25 -299 0z"/>
<path d="M8393 5131 c-75 -35 -73 -18 -73 -566 0 -528 1 -535 56 -571 59 -39
361 -26 489 20 253 92 378 295 362 589 -14 267 -171 463 -423 527 -109 28
-350 28 -411 1z m378 -202 c239 -69 328 -424 160 -637 -66 -83 -192 -131 -343
-132 l-68 0 0 394 0 395 23 4 c44 7 163 -5 228 -24z"/>
<path d="M1293 5074 c-4 -33 -8 -156 -7 -274 0 -182 4 -231 22 -318 96 -447
324 -761 692 -956 131 -68 156 -74 232 -46 191 69 479 240 687 407 185 149
393 365 500 517 41 59 47 83 14 54 -61 -54 -306 -146 -476 -179 -672 -131
-1307 142 -1575 676 -22 44 -46 98 -53 120 -20 62 -27 62 -36 -1z"/>
<path d="M4924 5105 c-76 -45 -74 -33 -74 -569 0 -520 2 -536 55 -556 38 -14
99 4 125 37 20 26 20 35 18 415 -2 213 0 388 3 388 4 0 75 -100 159 -222 159
-232 186 -268 204 -268 14 0 33 32 182 298 l119 212 5 -407 c4 -295 8 -414 17
-429 27 -47 112 -37 158 17 l25 31 0 481 c0 439 -2 485 -18 517 -19 40 -88 80
-137 80 -60 0 -85 -28 -200 -223 -60 -103 -123 -208 -139 -234 l-29 -47 -22
28 c-12 16 -85 121 -161 233 -76 113 -150 214 -163 224 -32 26 -78 24 -127 -6z"/>
<path d="M6194 5111 c-17 -10 -40 -31 -52 -46 -22 -27 -22 -35 -22 -360 0
-353 6 -416 47 -502 149 -317 660 -342 840 -42 59 99 63 132 63 555 0 356 -1
382 -18 397 -37 34 -111 16 -162 -38 l-25 -27 -5 -361 c-5 -351 -6 -363 -27
-404 -48 -90 -127 -136 -233 -136 -123 -1 -218 65 -253 174 -15 44 -17 104
-17 410 0 346 -1 360 -20 379 -25 25 -75 26 -116 1z"/>
<path d="M9471 5113 c-18 -9 -42 -31 -52 -47 -18 -29 -19 -60 -19 -526 0 -530
0 -530 51 -559 38 -21 106 3 136 48 l23 34 -3 512 c-2 489 -3 514 -21 534 -23
26 -68 27 -115 4z"/>
</g>
</svg>
