<?xml version="1.0" standalone="no"?>
<!DOCTYPE svg PUBLIC "-//W3C//DTD SVG 20010904//EN"
 "http://www.w3.org/TR/2001/REC-SVG-20010904/DTD/svg10.dtd">
<svg version="1.0" xmlns="http://www.w3.org/2000/svg"
 width="800.000000pt" height="800.000000pt" viewBox="0 0 800.000000 800.000000"
 preserveAspectRatio="xMidYMid meet">

<g transform="translate(0.000000,800.000000) scale(0.100000,-0.100000)"
fill="#000000" stroke="none">
<path d="M790 5558 c0 -9 63 -326 140 -705 78 -378 202 -989 277 -1358 75
-368 139 -673 143 -678 3 -4 41 8 83 27 394 180 877 286 1302 286 384 0 778
-80 1164 -235 l111 -44 33 19 c75 44 380 151 552 194 33 8 130 25 215 38 138
20 192 23 490 23 223 0 363 -4 420 -13 289 -44 494 -106 727 -222 87 -43 159
-78 160 -76 2 1 96 427 283 1276 27 124 83 380 125 570 42 190 96 437 121 550
24 113 51 233 59 267 8 34 15 70 15 80 0 17 -129 18 -3210 18 -3024 0 -3210
-1 -3210 -17z m4562 -534 c39 -20 62 -75 54 -128 -9 -55 -43 -104 -101 -145
l-47 -34 7 50 6 50 -47 6 c-64 7 -94 40 -94 102 0 102 116 154 222 99z m-2321
-124 c119 -22 224 -94 271 -185 40 -77 77 -277 78 -417 0 -17 -23 -18 -350
-18 l-350 0 0 -52 c0 -159 80 -224 244 -198 70 11 106 42 106 91 l0 29 160 0
160 0 0 -28 c0 -58 -31 -133 -73 -179 -89 -97 -203 -133 -416 -133 -207 0
-315 34 -408 126 -92 92 -133 229 -133 444 0 217 35 334 121 415 58 54 114 81
207 100 81 16 308 19 383 5z m3156 -14 c84 -27 144 -73 175 -136 15 -30 30
-76 34 -102 l6 -48 -176 0 c-152 0 -176 2 -176 15 0 26 -29 74 -52 86 -70 37
-168 27 -218 -23 -34 -33 -38 -64 -14 -109 19 -38 72 -62 184 -84 302 -57 378
-85 430 -157 39 -54 54 -131 42 -213 -13 -83 -35 -126 -84 -171 -78 -70 -184
-94 -423 -94 -362 0 -496 73 -521 284 l-7 56 180 0 181 0 10 -43 c20 -78 83
-117 190 -117 91 0 132 34 132 108 0 84 -48 110 -274 147 -237 38 -321 78
-370 176 -21 42 -26 67 -26 123 0 90 13 135 53 188 41 53 135 103 232 123 98
20 419 14 492 -9z m-1167 -506 l0 -510 -165 0 -165 0 0 510 0 510 165 0 165 0
0 -510z m-3090 115 l0 -385 170 0 170 0 0 -120 0 -120 -340 0 -340 0 0 505 0
505 170 0 170 0 0 -385z m1848 333 c10 -29 61 -175 113 -325 52 -150 97 -269
101 -265 3 4 57 150 119 325 l112 317 184 0 183 0 -13 -32 c-7 -18 -96 -246
-198 -506 l-184 -472 -214 2 -213 3 -189 495 c-104 272 -189 498 -189 503 0 4
83 7 184 7 l185 0 19 -52z"/>
<path d="M2760 4692 c-47 -23 -71 -70 -78 -147 l-5 -65 178 0 178 0 -5 65
c-10 116 -60 165 -173 165 -37 0 -73 -7 -95 -18z"/>
<path d="M5960 2807 c-71 -23 -130 -112 -130 -193 1 -40 32 -103 66 -136 128
-119 341 -7 321 169 -13 117 -143 198 -257 160z m151 -50 c58 -39 81 -84 77
-145 -5 -59 -27 -94 -79 -130 -47 -33 -132 -28 -182 11 -66 50 -85 155 -39
217 53 71 155 93 223 47z"/>
<path d="M5960 2625 c0 -88 1 -95 20 -95 15 0 20 7 20 25 0 15 6 25 15 25 8 0
22 -11 31 -25 9 -14 23 -25 30 -25 17 0 17 8 0 40 -13 22 -12 27 10 53 30 36
30 42 -1 72 -19 20 -34 25 -75 25 l-50 0 0 -95z m97 39 c7 -18 -12 -34 -39
-34 -13 0 -18 8 -18 25 0 20 5 25 25 25 14 0 28 -7 32 -16z"/>
</g>
</svg>
