<?xml version="1.0" standalone="no"?>
<!DOCTYPE svg PUBLIC "-//W3C//DTD SVG 20010904//EN"
 "http://www.w3.org/TR/2001/REC-SVG-20010904/DTD/svg10.dtd">
<svg version="1.0" xmlns="http://www.w3.org/2000/svg"
 width="1024.000000pt" height="1024.000000pt" viewBox="0 0 1024.000000 1024.000000"
 preserveAspectRatio="xMidYMid meet">

<g transform="translate(0.000000,1024.000000) scale(0.100000,-0.100000)"
fill="#000000" stroke="none">
<path d="M5085 8459 c-395 -35 -810 -246 -1083 -549 -154 -171 -307 -433 -362
-617 l-25 -83 -680 -2 -680 -3 -3 -87 -3 -88 667 0 c613 0 666 -1 660 -16 -4
-9 -9 -93 -13 -185 l-6 -169 -966 -2 -966 -3 -3 -87 -3 -88 979 0 979 0 12
-62 c16 -84 59 -235 77 -270 l15 -28 -716 0 -716 0 3 -87 3 -88 752 -3 751 -2
37 -68 c84 -151 225 -325 362 -445 319 -277 702 -417 1148 -417 221 0 369 24
586 96 358 118 709 405 915 751 l49 83 600 2 600 3 0 85 0 85 -562 3 -563 2
20 50 c22 55 67 228 72 275 l3 30 838 3 837 2 0 90 0 90 -827 0 -828 -1 -6
148 c-3 82 -10 165 -14 186 l-7 37 521 0 521 0 0 90 0 90 -539 0 -539 0 -23
68 c-57 173 -140 331 -258 490 -58 78 -256 292 -271 292 -5 0 -1130 -1122
-1249 -1246 -7 -6 251 -264 264 -264 7 0 231 220 498 489 l486 490 35 -57 c96
-160 162 -338 191 -512 21 -124 16 -360 -9 -475 -67 -302 -225 -579 -438 -767
-260 -228 -564 -342 -913 -341 -230 1 -417 44 -615 143 -260 131 -469 344
-600 613 -102 209 -137 349 -146 577 -10 241 39 463 148 671 180 345 506 594
898 686 77 18 147 26 263 30 l157 6 0 177 c0 176 0 178 -22 184 -30 8 -180 5
-293 -5z"/>
<path d="M4380 4512 c-213 -57 -344 -249 -327 -477 10 -127 71 -240 172 -317
74 -57 144 -80 253 -86 111 -5 201 19 284 77 47 33 53 41 61 84 4 26 6 112 5
190 l-3 142 -165 0 -165 0 0 -65 0 -65 91 -3 92 -3 3 -37 c2 -20 2 -59 -1 -87
-5 -50 -5 -50 -60 -72 -203 -82 -409 55 -412 274 -1 86 14 139 56 200 41 59
103 99 179 114 75 15 144 1 223 -47 l58 -35 43 43 c24 23 43 48 43 54 0 18
-71 71 -135 100 -76 35 -201 42 -295 16z"/>
<path d="M8208 4511 c-87 -24 -141 -57 -205 -123 -86 -91 -123 -186 -123 -316
0 -249 201 -442 460 -442 138 0 255 52 345 152 157 174 150 444 -15 609 -122
123 -290 166 -462 120z m259 -151 c102 -44 164 -140 171 -265 5 -102 -19 -173
-80 -234 -62 -61 -119 -85 -210 -89 -67 -4 -84 -1 -135 23 -95 43 -142 100
-169 206 -39 150 41 314 179 369 68 26 170 23 244 -10z"/>
<path d="M294 4496 c-3 -7 -4 -38 -2 -67 l3 -54 137 -3 138 -3 2 -357 3 -357
70 0 70 0 3 357 2 357 133 3 132 3 0 65 0 65 -343 3 c-284 2 -343 0 -348 -12z"/>
<path d="M1390 4080 l0 -430 70 0 70 0 2 183 3 182 237 3 238 2 2 -182 3 -183
70 0 70 0 0 425 0 425 -64 3 c-45 2 -67 -1 -72 -10 -5 -7 -9 -86 -9 -175 l0
-163 -240 0 -240 0 -2 173 -3 172 -67 3 -68 3 0 -431z"/>
<path d="M2587 4503 c-4 -3 -7 -197 -7 -430 l0 -423 288 2 287 3 0 60 0 60
-212 3 -213 2 0 118 0 117 177 0 178 0 0 65 0 65 -177 3 -178 2 0 110 0 110
213 2 212 3 0 65 0 65 -281 3 c-154 1 -283 -1 -287 -5z"/>
<path d="M5563 4493 c-4 -10 -91 -200 -194 -422 -103 -223 -186 -408 -183
-413 3 -4 37 -8 75 -8 l70 0 45 95 45 95 189 0 189 0 45 -95 45 -95 75 0 c54
0 76 4 76 13 0 6 -88 200 -196 430 l-197 417 -39 0 c-28 0 -40 -5 -45 -17z
m116 -388 l61 -130 -127 -3 c-69 -1 -128 -1 -130 2 -2 2 24 65 58 140 35 75
66 133 70 129 4 -5 35 -66 68 -138z"/>
<path d="M6385 4498 c-3 -7 -4 -200 -3 -428 l3 -415 265 0 265 0 0 60 0 60
-192 3 -193 2 -2 363 -3 362 -68 3 c-48 2 -69 -1 -72 -10z"/>
<path d="M7317 4503 c-4 -3 -7 -197 -7 -430 l0 -424 73 3 72 3 2 405 c2 223 0
415 -2 428 -5 20 -11 22 -69 22 -34 0 -66 -3 -69 -7z"/>
<path d="M9187 4503 c-3 -7 -1 -820 2 -846 1 -4 31 -7 69 -5 l67 3 5 289 5
288 269 -291 c250 -271 271 -291 302 -291 l34 0 -2 428 -3 427 -65 0 -65 0 -3
-278 c-1 -153 -6 -277 -10 -275 -5 2 -84 86 -177 188 -363 399 -334 370 -381
370 -24 0 -45 -3 -47 -7z"/>
<path d="M4575 3085 c-5 -2 -22 -6 -38 -9 -41 -9 -103 -71 -123 -122 -24 -64
-15 -154 23 -207 78 -111 239 -117 331 -13 87 99 58 267 -56 325 -36 19 -117
34 -137 26z m105 -93 c79 -57 78 -193 -2 -242 -92 -56 -198 9 -198 123 0 117
111 183 200 119z"/>
<path d="M6280 3078 c-135 -38 -190 -209 -108 -332 51 -78 163 -109 255 -71
61 26 66 33 42 67 -20 28 -22 28 -40 12 -10 -9 -39 -19 -65 -22 -89 -10 -147
50 -148 151 0 109 117 170 205 107 26 -19 27 -19 50 6 l24 26 -27 23 c-15 13
-50 28 -78 34 -59 13 -63 13 -110 -1z"/>
<path d="M3257 3073 c-4 -3 -7 -96 -7 -205 l0 -198 40 0 40 0 0 78 0 78 33 -4
c50 -6 116 16 149 48 24 24 28 36 28 83 0 48 -4 59 -29 85 -17 16 -44 32 -62
36 -42 8 -184 8 -192 -1z m187 -79 c20 -20 21 -68 1 -84 -9 -7 -38 -15 -65
-18 l-50 -5 0 62 0 61 49 0 c32 0 55 -6 65 -16z"/>
<path d="M3838 3074 c-5 -4 -8 -97 -8 -206 l0 -198 40 0 40 0 0 80 c0 76 1 80
23 80 17 0 32 -17 66 -76 25 -42 50 -78 57 -81 6 -2 28 -3 48 -1 l36 3 -53 80
-53 80 38 35 c44 40 58 91 38 139 -21 51 -54 65 -165 69 -55 2 -103 1 -107 -4z
m184 -81 c43 -39 4 -93 -66 -93 l-44 0 -4 55 -3 55 49 0 c32 0 56 -6 68 -17z"/>
<path d="M5200 2928 c0 -181 -8 -203 -69 -196 -20 3 -43 8 -52 12 -13 5 -19 0
-27 -23 -15 -43 5 -56 89 -56 58 0 71 3 93 24 39 37 47 81 44 241 l-3 145 -37
3 -38 3 0 -153z"/>
<path d="M5587 3074 c-4 -4 -7 -97 -7 -206 l0 -198 134 0 134 0 5 27 c3 16 3
31 0 35 -2 5 -47 8 -99 8 l-94 0 0 55 0 55 85 0 85 0 0 30 0 30 -85 0 -85 0 0
50 0 50 96 0 95 0 -3 33 -3 32 -126 3 c-69 1 -128 -1 -132 -4z"/>
<path d="M6730 3045 l0 -35 60 0 60 0 0 -170 0 -170 40 0 40 0 0 170 0 170 61
0 60 0 -3 33 -3 32 -157 3 -158 3 0 -36z"/>
</g>
</svg>
